<svg version="1.1" id="Layer_1" xmlns="http://www.w3.org/2000/svg" xmlns:xlink="http://www.w3.org/1999/xlink" x="0px" y="0px"
	 width="100%" viewBox="0 0 500 500" enable-background="new 0 0 500 500" xml:space="preserve">
<path fill="#000000" opacity="1.000000" stroke="none" 
	d="
M491.039001,501.000000 
	C327.366760,501.000000 164.201263,501.000000 1.017893,501.000000 
	C1.017893,334.346466 1.017893,167.692947 1.017893,1.019711 
	C167.652313,1.019711 334.304626,1.019711 500.978455,1.019711 
	C500.978455,167.651108 500.978455,334.302216 500.978455,501.000000 
	C497.848663,501.000000 494.697235,501.000000 491.039001,501.000000 
M238.775238,261.011200 
	C244.813828,261.011200 250.852417,261.011200 256.891022,261.011200 
	C256.879364,260.779083 256.867737,260.546997 256.856110,260.314880 
	C248.912659,260.314880 240.969208,260.314880 233.025772,260.314880 
	C233.027542,260.546967 233.029312,260.779022 233.031082,261.011108 
	C234.651443,261.011108 236.271805,261.011108 238.775238,261.011200 
z"/>
<path fill="#242424" opacity="1.000000" stroke="none" 
	d="
M238.333710,261.011169 
	C236.271805,261.011108 234.651443,261.011108 233.031082,261.011108 
	C233.029312,260.779022 233.027542,260.546967 233.025772,260.314880 
	C240.969208,260.314880 248.912659,260.314880 256.856110,260.314880 
	C256.867737,260.546997 256.879364,260.779083 256.891022,261.011200 
	C250.852417,261.011200 244.813828,261.011200 238.333710,261.011169 
z"/>
</svg>